<svg xmlns="http://www.w3.org/2000/svg" xmlns:xlink="http://www.w3.org/1999/xlink" version="1.1" x="0px" y="0px" viewBox="35.5 35 100 100" enable-background="new 35.5 35 100 100" xml:space="preserve">
	<g>
		<path fill="white" d="M44.5,81.405v8.954h82v-8.954H44.5z M103.432,89.241H67.076v-6.717h36.355V89.241z" />
		<path fill="white" d="M100.297,95.585c-0.262-0.264-0.687-0.266-0.95-0.004c-0.264,0.261-0.265,0.686-0.004,0.949l1.778,1.794H69.384l1.78-1.795   c0.261-0.264,0.259-0.688-0.004-0.95c-0.263-0.262-0.689-0.26-0.95,0.004l-2.939,2.965c-0.26,0.262-0.26,0.685,0,0.946l2.94,2.966   c0.131,0.133,0.304,0.198,0.477,0.198c0.171,0,0.342-0.064,0.473-0.194c0.264-0.261,0.266-0.687,0.004-0.95l-1.83-1.846h31.84   l-1.832,1.848c-0.261,0.264-0.26,0.688,0.004,0.949c0.131,0.13,0.302,0.195,0.473,0.195c0.173,0,0.346-0.066,0.478-0.199   l2.939-2.965c0.26-0.262,0.26-0.684,0-0.945L100.297,95.585z" />
	</g>
</svg>
