<svg xmlns:dc="http://purl.org/dc/elements/1.1/" xmlns:cc="http://creativecommons.org/ns#" xmlns:rdf="http://www.w3.org/1999/02/22-rdf-syntax-ns#" xmlns:svg="http://www.w3.org/2000/svg" xmlns="http://www.w3.org/2000/svg" xmlns:sodipodi="http://sodipodi.sourceforge.net/DTD/sodipodi-0.dtd" xmlns:inkscape="http://www.inkscape.org/namespaces/inkscape" version="1.1" x="0px" y="0px" viewBox="0 0 100 100">
	<g transform="translate(0,-952.36218)">
		<path fill="white" style="text-indent:0;text-transform:none;direction:ltr;block-progression:tb;baseline-shift:baseline;color:#000000;enable-background:accumulate;" d="m 13.968745,958.34619 a 2.000005,2.000005 0 0 0 -0.09375,0.0312 2.000005,2.000005 0 0 0 -0.1875,0.0312 2.000005,2.000005 0 0 0 -0.5625,0.1875 2.000005,2.000005 0 0 0 -1.125,1.78135 l 0,8.21875 a 2.000005,2.000005 0 0 0 0.375,1.15625 l 26.59375,36.40626 0,38.2188 a 2.000005,2.000005 0 0 0 3.25,1.5625 l 18.0625,-14.375 a 2.000005,2.000005 0 0 0 0.75,-1.5625 l 0,-23.8438 26.59375,-36.40626 a 2.000005,2.000005 0 0 0 0.375,-1.15625 l 0,-8.21875 a 2.000005,2.000005 0 0 0 -2.15625,-2 l -0.0625,0 -71.40625,0 a 2.000005,2.000005 0 0 0 -0.40625,-0.0312 z" fill="#000000" fill-opacity="1" fill-rule="evenodd" stroke="none" marker="none" visibility="visible" display="inline" overflow="visible" />
	</g>
</svg>
