<svg xmlns="http://www.w3.org/2000/svg" data-name="Layer 1" viewBox="0 0 100 100" x="0px" y="0px">
	<g data-name="Group">
		<path fill="grey" data-name="Compound Path" d="M79.1,13H18.9A2,2,0,0,0,17,15.1V28c0,.1,0,.1.1.2v.2a.1.1,0,0,1,.1.1v.2c.1,0-.1.1,0,.1L39,52.7V82.9a2.2,2.2,0,0,0,1.3,1.8l.9.2a2.4,2.4,0,0,0,1.4-.5L58.1,71.3a2.2,2.2,0,0,0,.9-1.5V52.7L80.7,28.8c.1,0,0-.1.1-.1v-.2a.1.1,0,0,0,.1-.1c0-.1,0-.2.1-.2V15.1A2,2,0,0,0,79.1,13ZM77,17v8H21V17ZM55.4,50.3a2.3,2.3,0,0,0-.4,1.6V68.8L43,78.5V51.9a2.3,2.3,0,0,0-.4-1.6L23.4,29H74.6Z" />
	</g>
</svg>
